<svg width="176" height="34" viewBox="0 0 176 34" fill="none" xmlns="http://www.w3.org/2000/svg">
<path d="M47.5 19.2424C47.5 22.7101 50.4387 25.4725 54.7587 25.4725C58.4321 25.4725 61.7235 23.386 61.8704 19.7419C62.0174 17.3616 60.9006 14.8343 56.3456 13.5706L53.8477 12.8359C51.673 12.3069 51.4379 11.1021 51.4379 10.5143C51.4379 9.07434 52.7897 8.13394 54.4648 8.13394C56.3456 8.13394 57.4917 9.1625 57.4917 10.7788H61.2533C61.2533 7.01722 58.3439 4.66623 54.5236 4.66623C50.7914 4.66623 47.7057 7.04661 47.7057 10.6025C47.7057 12.3657 48.411 14.9812 52.8191 16.2449L55.317 16.8914C57.2566 17.4203 58.197 18.3314 58.1088 19.6538C58.0207 21.035 56.7864 22.0929 54.7587 22.0929C52.584 22.0929 51.3497 20.7411 51.2616 19.2424H47.5Z" fill="#232A3F"/>
<path d="M76.2486 11.4253H72.4283L68.99 19.977L65.581 11.4253H61.7607L67.1092 24.0913L63.9647 31.8495H67.7557L76.2486 11.4253Z" fill="#232A3F"/>
<path d="M92.4335 14.6285C93.9322 14.6285 95.0196 15.6865 95.0196 17.6848V25.1492H98.5754V17.3028C98.5754 13.2767 96.6065 11.1315 93.2857 11.1315C92.2278 11.1315 90.2294 11.4253 88.9658 13.7175C88.1723 12.0425 86.7911 11.2784 84.5871 11.1608C83.2646 11.1608 81.4426 11.778 80.6492 13.4531V11.4253H77.0639V25.1492H80.6492V17.8318C80.6492 15.4808 82.0597 14.6285 83.5291 14.6285C84.9397 14.6285 86.027 15.6865 86.0564 17.5967V25.1492H89.6417V17.8318C89.6417 15.7159 90.7878 14.6285 92.4335 14.6285Z" fill="#232A3F"/>
<path d="M104.578 11.4253H100.993V31.8201H104.578V23.3272C105.313 24.7084 107.076 25.4431 108.869 25.4431C112.454 25.4431 115.569 22.6513 115.569 18.2726C115.569 13.9526 112.454 11.1315 108.869 11.1315C107.076 11.1315 105.313 11.8955 104.578 13.2767V11.4253ZM104.637 18.3314C104.637 16.0391 106.312 14.5698 108.281 14.5698C110.25 14.5698 111.895 16.0685 111.895 18.3314C111.895 20.5648 110.25 22.0342 108.281 22.0342C106.4 22.0342 104.637 20.6823 104.637 18.3314Z" fill="#232A3F"/>
<path d="M120.902 17.8318C120.902 15.4514 122.694 14.6285 124.193 14.6285C125.663 14.6285 127.103 15.7159 127.103 17.6848V25.1492H130.688V17.5085C130.688 13.4824 128.719 11.1315 125.163 11.1315C123.811 11.1315 121.519 11.8955 120.902 13.5412V3.96094H117.317V25.1492H120.902V17.8318Z" fill="#232A3F"/>
<path d="M139.384 21.9166C137.386 21.9166 135.799 20.4766 135.799 18.2432C135.799 16.0391 137.386 14.6579 139.384 14.6579C141.382 14.6579 142.969 16.0391 142.969 18.2432C142.969 20.4766 141.382 21.9166 139.384 21.9166ZM139.384 25.4137C143.263 25.4137 146.525 22.5631 146.525 18.2432C146.525 13.8939 143.263 11.1315 139.384 11.1315C135.505 11.1315 132.243 13.8939 132.243 18.2432C132.243 22.5631 135.505 25.4137 139.384 25.4137Z" fill="#232A3F"/>
<path d="M151.856 17.8318C151.856 15.4514 153.208 14.6285 154.854 14.6285C156.411 14.6285 157.469 15.6865 157.469 17.6848V25.1492H161.054V17.0383C161.054 13.1298 159.144 11.1315 155.941 11.1315C154.325 11.1315 152.65 11.9543 151.856 13.4531V11.4253H148.271V25.1492H151.856V17.8318Z" fill="#232A3F"/>
<path d="M175.999 11.4253H172.179L168.74 19.977L165.332 11.4253H161.511L166.86 24.0913L163.715 31.8495H167.506L175.999 11.4253Z" fill="#232A3F"/>
<mask id="mask0_1530_265" style="mask-type:alpha" maskUnits="userSpaceOnUse" x="0" y="0" width="40" height="34">
<path fill-rule="evenodd" clip-rule="evenodd" d="M14.2555 0.984375C12.3162 0.984375 10.7441 2.55646 10.7441 4.49573V24.059C10.7441 25.9983 12.3162 27.5704 14.2555 27.5704C16.1948 27.5704 17.7669 25.9983 17.7669 24.059V4.49573C17.7669 2.55646 16.1948 0.984375 14.2555 0.984375ZM3.51136 7.1875C1.57209 7.1875 0 8.75958 0 10.6989V30.2621C0 32.2014 1.57209 33.7735 3.51136 33.7735C5.45062 33.7735 7.02271 32.2014 7.02271 30.2621V10.6989C7.02271 8.75959 5.45062 7.1875 3.51136 7.1875ZM21.4863 10.6989C21.4863 8.75958 23.0584 7.1875 24.9977 7.1875C26.937 7.1875 28.509 8.75959 28.509 10.6989V30.2621C28.509 32.2014 26.937 33.7735 24.9977 33.7735C23.0584 33.7735 21.4863 32.2014 21.4863 30.2621V10.6989ZM35.7438 0.984375C33.8045 0.984375 32.2324 2.55646 32.2324 4.49573V24.059C32.2324 25.9983 33.8045 27.5704 35.7438 27.5704C37.683 27.5704 39.2551 25.9983 39.2551 24.059V4.49573C39.2551 2.55646 37.683 0.984375 35.7438 0.984375Z" fill="url(#paint0_linear_1530_265)"/>
</mask>
<g mask="url(#mask0_1530_265)">
<path fill-rule="evenodd" clip-rule="evenodd" d="M14.2555 0.984375C12.3162 0.984375 10.7441 2.55646 10.7441 4.49573V24.059C10.7441 25.9983 12.3162 27.5704 14.2555 27.5704C16.1948 27.5704 17.7669 25.9983 17.7669 24.059V4.49573C17.7669 2.55646 16.1948 0.984375 14.2555 0.984375ZM3.51136 7.1875C1.57209 7.1875 0 8.75958 0 10.6989V30.2621C0 32.2014 1.57209 33.7735 3.51136 33.7735C5.45062 33.7735 7.02271 32.2014 7.02271 30.2621V10.6989C7.02271 8.75959 5.45062 7.1875 3.51136 7.1875ZM21.4863 10.6989C21.4863 8.75958 23.0584 7.1875 24.9977 7.1875C26.937 7.1875 28.509 8.75959 28.509 10.6989V30.2621C28.509 32.2014 26.937 33.7735 24.9977 33.7735C23.0584 33.7735 21.4863 32.2014 21.4863 30.2621V10.6989ZM35.7438 0.984375C33.8045 0.984375 32.2324 2.55646 32.2324 4.49573V24.059C32.2324 25.9983 33.8045 27.5704 35.7438 27.5704C37.683 27.5704 39.2551 25.9983 39.2551 24.059V4.49573C39.2551 2.55646 37.683 0.984375 35.7438 0.984375Z" fill="url(#paint1_linear_1530_265)"/>
<path opacity="0.4" d="M47.5572 29.5731C46.5601 37.6867 34.477 42.8785 20.5688 41.1693C6.66053 39.4601 -22.5542 27.651 1.03854 24.1813C17.8301 19.7204 13.3508 14.0427 27.3637 14.0427C40.7117 14.0427 48.5543 21.4594 47.5572 29.5731Z" fill="url(#paint2_linear_1530_265)"/>
</g>
<defs>
<linearGradient id="paint0_linear_1530_265" x1="39.2551" y1="17.3789" x2="7.66431e-08" y2="17.3789" gradientUnits="userSpaceOnUse">
<stop stop-color="#AFE7D1"/>
<stop offset="1" stop-color="#8FD6F4"/>
</linearGradient>
<linearGradient id="paint1_linear_1530_265" x1="39.2551" y1="17.3789" x2="7.66431e-08" y2="17.3789" gradientUnits="userSpaceOnUse">
<stop stop-color="#AFE7D1"/>
<stop offset="1" stop-color="#8FD6F4"/>
</linearGradient>
<linearGradient id="paint2_linear_1530_265" x1="20.8985" y1="14.6462" x2="21.0615" y2="39.1951" gradientUnits="userSpaceOnUse">
<stop stop-color="#E3FFF5"/>
<stop offset="1" stop-color="#8FD6F4"/>
</linearGradient>
</defs>
</svg>
