<svg width="40" height="33" viewBox="0 0 40 33" fill="none" xmlns="http://www.w3.org/2000/svg">
<mask id="mask0_1530_236" style="mask-type:alpha" maskUnits="userSpaceOnUse" x="0" y="0" width="40" height="33">
<path fill-rule="evenodd" clip-rule="evenodd" d="M14.2555 0C12.3162 0 10.7441 1.57208 10.7441 3.51135V23.0746C10.7441 25.0139 12.3162 26.586 14.2555 26.586C16.1948 26.586 17.7669 25.0139 17.7669 23.0746V3.51135C17.7669 1.57209 16.1948 0 14.2555 0ZM3.51136 6.20117C1.57209 6.20117 0 7.77326 0 9.71252V29.2758C0 31.2151 1.57209 32.7871 3.51136 32.7871C5.45062 32.7871 7.02271 31.2151 7.02271 29.2758V9.71253C7.02271 7.77326 5.45062 6.20117 3.51136 6.20117ZM21.4863 9.71252C21.4863 7.77326 23.0584 6.20117 24.9977 6.20117C26.937 6.20117 28.509 7.77326 28.509 9.71253V29.2758C28.509 31.2151 26.937 32.7871 24.9977 32.7871C23.0584 32.7871 21.4863 31.2151 21.4863 29.2758V9.71252ZM35.7438 0C33.8045 0 32.2324 1.57208 32.2324 3.51135V23.0746C32.2324 25.0139 33.8045 26.586 35.7438 26.586C37.683 26.586 39.2551 25.0139 39.2551 23.0746V3.51135C39.2551 1.57209 37.683 0 35.7438 0Z" fill="url(#paint0_linear_1530_236)"/>
</mask>
<g mask="url(#mask0_1530_236)">
<path fill-rule="evenodd" clip-rule="evenodd" d="M14.2555 0C12.3162 0 10.7441 1.57208 10.7441 3.51135V23.0746C10.7441 25.0139 12.3162 26.586 14.2555 26.586C16.1948 26.586 17.7669 25.0139 17.7669 23.0746V3.51135C17.7669 1.57209 16.1948 0 14.2555 0ZM3.51136 6.20117C1.57209 6.20117 0 7.77326 0 9.71252V29.2758C0 31.2151 1.57209 32.7871 3.51136 32.7871C5.45062 32.7871 7.02271 31.2151 7.02271 29.2758V9.71253C7.02271 7.77326 5.45062 6.20117 3.51136 6.20117ZM21.4863 9.71252C21.4863 7.77326 23.0584 6.20117 24.9977 6.20117C26.937 6.20117 28.509 7.77326 28.509 9.71253V29.2758C28.509 31.2151 26.937 32.7871 24.9977 32.7871C23.0584 32.7871 21.4863 31.2151 21.4863 29.2758V9.71252ZM35.7438 0C33.8045 0 32.2324 1.57208 32.2324 3.51135V23.0746C32.2324 25.0139 33.8045 26.586 35.7438 26.586C37.683 26.586 39.2551 25.0139 39.2551 23.0746V3.51135C39.2551 1.57209 37.683 0 35.7438 0Z" fill="url(#paint1_linear_1530_236)"/>
<path opacity="0.4" d="M47.5572 28.5867C46.5601 36.7004 34.477 41.8922 20.5688 40.183C6.66053 38.4738 -22.5542 26.6646 1.03854 23.1949C17.8301 18.7341 13.3508 13.0563 27.3637 13.0563C40.7117 13.0563 48.5543 20.4731 47.5572 28.5867Z" fill="url(#paint2_linear_1530_236)"/>
</g>
<defs>
<linearGradient id="paint0_linear_1530_236" x1="39.2551" y1="16.3935" x2="7.66431e-08" y2="16.3935" gradientUnits="userSpaceOnUse">
<stop stop-color="#AFE7D1"/>
<stop offset="1" stop-color="#8FD6F4"/>
</linearGradient>
<linearGradient id="paint1_linear_1530_236" x1="39.2551" y1="16.3935" x2="7.66431e-08" y2="16.3935" gradientUnits="userSpaceOnUse">
<stop stop-color="#AFE7D1"/>
<stop offset="1" stop-color="#8FD6F4"/>
</linearGradient>
<linearGradient id="paint2_linear_1530_236" x1="20.8985" y1="13.6599" x2="21.0615" y2="38.2088" gradientUnits="userSpaceOnUse">
<stop stop-color="#E3FFF5"/>
<stop offset="1" stop-color="#8FD6F4"/>
</linearGradient>
</defs>
</svg>
